<svg id="Capa_1" enable-background="new 0 0 496.999 496.999" height="512" viewBox="0 0 496.999 496.999" width="512" xmlns="http://www.w3.org/2000/svg"><g><path d="m248.794 59.956-.296.138-124.287-58.137c-13.602-6.363-29.206 3.565-29.206 18.582v143.645h153.789z" fill="#ee98d0"/><path d="m372.784 2.957-7.427 2.474-116.86 54.664v104.089h152.493v-143.645c0-15.017-14.604-23.945-28.206-17.582z" fill="#ee98d0"/><path d="m401.988 20.539v143.64h-30v-143.64c0-6.15-2.61-11.44-6.63-15.1l7.43-3.48c13.6-6.36 29.2 3.56 29.2 18.58z" fill="#ed7ac1"/><path d="m248.498 148.873c-18.624 0-33.721-15.098-33.721-33.721v-52.613c0-18.624 15.098-33.721 33.721-33.721 18.624 0 33.721 15.098 33.721 33.721v52.614c0 18.623-15.098 33.72-33.721 33.72z" fill="#ed7ac1"/><path d="m410.361 496.998h-90.393l-68.501-10-74.439 10h-110.394c-13.807 0-25-11.193-25-25v-69.938l10-65.409-10-77.529v-113.875c0-13.807 11.193-25 25-25h343.727c13.807 0 25 11.193 25 25v326.751c0 13.808-11.193 25-25 25z" fill="#ee98d0"/><path d="m455.358 145.249v113.868l-10 78.844 10 64.097v69.94c0 13.81-11.19 25-25 25h-30c13.81 0 25-11.19 25-25v-69.938l10-99.586-10-43.357v-113.868c0-13.81-11.19-25-25-25h30c13.81 0 25 11.19 25 25z" fill="#ed7ac1"/><path d="m453.014 164.183h-429.033c-5.523 0-10-4.477-10-10v-55.338c0-5.523 4.477-10 10-10h153.048l76.912 10 66.028-10h133.045c5.523 0 10 4.477 10 10v55.338c0 5.523-4.477 10-10 10z" fill="#a4ccff"/><path d="m483.018 98.849v55.33c0 5.53-4.48 10-10 10h-30c5.52 0 10-4.47 10-10v-55.33c0-5.53-4.48-10-10-10h30c5.52 0 10 4.47 10 10z" fill="#8bb3ea"/><path d="m41.634 402.06v-70.219l10-62.719 55.8-10h212.535l24.41 10 32.507-10h48.472l10.003 132.938-40.617 10h-217.715l-15.154-10-29.858 10z" fill="#a4ccff"/><path d="m455.358 259.119v92.8l-10 19.2 10 30.94h-30l10-22.391-10-21.068v-99.481z" fill="#8bb3ea"/><path d="m445.363 361.924v30.137l-20.005 10h-30.614c2.671-18.895 14.381-34.887 30.611-43.462 8.14-4.301 7.416 3.264 17.259 3.264.923-.001 1.836.02 2.749.061z" fill="#f7f3f1"/><path d="m110.714 277.96c0 30.669-24.873 55.542-55.552 55.542-4.667 0-9.201-.574-13.529-1.662v-72.723h65.799c2.123 5.888 3.282 12.227 3.282 18.843z" fill="#f7f3f1"/><path d="m455.358 351.919v50.14h-30v-43.46c8.14-4.3 17.41-6.74 27.26-6.74.92 0 1.82.02 2.74.06z" fill="#ede2de"/><path d="m177.026 359.699 22.016 42.362h-67.024c-.072-.985-.113-1.969-.113-2.974 0-21.95 17.806-39.746 39.757-39.746 1.815-.001 3.61.122 5.364.358z" fill="#f7f3f1"/><path d="m378.199 272.144c0 33.582-25.52 61.194-58.23 64.507l-22.137-77.533h79.054c.861 4.205 1.313 8.564 1.313 13.026z" fill="#f7f3f1"/><path d="m289.968 496.998h-112.939v-408.153h112.939l7.864 87.141z" fill="#b284db"/><path d="m289.968 88.849h30v408.15h-30z" fill="#a26bd4"/></g></svg>
